<?xml version="1.0" standalone="no"?>
<!DOCTYPE svg PUBLIC "-//W3C//DTD SVG 20010904//EN"
 "http://www.w3.org/TR/2001/REC-SVG-20010904/DTD/svg10.dtd">
<svg version="1.0" xmlns="http://www.w3.org/2000/svg"
 width="112.000000pt" height="112.000000pt" viewBox="0 0 112.000000 112.000000"
 preserveAspectRatio="xMidYMid meet">
<metadata>
Created by potrace 1.16, written by Peter Selinger 2001-2019
</metadata>
<g transform="translate(0.000000,112.000000) scale(0.100000,-0.100000)"
fill="#000000" stroke="none">
<path d="M200 1070 c-72 -25 -133 -88 -154 -160 -14 -45 -16 -120 -16 -472 l0
-419 438 3 c481 3 470 2 545 67 19 18 46 53 59 79 23 47 23 50 26 485 l3 437
-423 0 c-388 -1 -427 -2 -478 -20z m880 -413 c0 -466 -1 -476 -71 -546 -70
-70 -80 -71 -546 -71 l-413 0 0 420 c0 454 0 454 55 526 13 18 48 44 77 58
l52 26 423 0 423 0 0 -413z"/>
<path d="M822 803 c-6 -2 -55 -59 -108 -125 -53 -66 -103 -122 -110 -125 -8
-3 -36 0 -64 7 -72 17 -165 15 -195 -4 -28 -18 -44 -81 -26 -99 8 -8 11 -5 11
11 0 13 12 34 26 47 24 23 35 25 113 24 135 -1 136 -2 43 -91 -86 -82 -116
-102 -173 -112 -46 -8 -85 9 -98 43 -6 16 -10 19 -10 9 -2 -29 11 -48 40 -63
82 -43 181 9 310 163 35 41 38 42 79 36 l42 -7 -7 -54 c-9 -72 12 -108 56 -99
37 7 87 44 118 88 20 28 16 26 -25 -13 -66 -62 -92 -76 -111 -56 -11 11 -13
27 -8 71 7 52 9 56 34 57 25 0 25 1 4 9 -21 9 -22 11 -9 52 19 63 76 197 87
204 11 6 12 34 2 33 -5 0 -14 -3 -21 -6z m-80 -173 c-36 -104 -38 -106 -89
-92 -21 7 -18 12 49 100 39 50 72 92 73 92 1 0 -14 -45 -33 -100z"/>
<path d="M810 533 c-14 -7 -18 -13 -10 -13 17 0 47 17 40 23 -3 2 -16 -2 -30
-10z"/>
</g>
</svg>
