<?xml version="1.0" standalone="no"?>
<!DOCTYPE svg PUBLIC "-//W3C//DTD SVG 20010904//EN"
 "http://www.w3.org/TR/2001/REC-SVG-20010904/DTD/svg10.dtd">
<svg version="1.0" xmlns="http://www.w3.org/2000/svg"
 width="512.000000pt" height="512.000000pt" viewBox="0 0 512.000000 512.000000"
 preserveAspectRatio="xMidYMid meet">
<metadata>
Created by potrace 1.16, written by Peter Selinger 2001-2019
</metadata>
<g transform="translate(0.000000,512.000000) scale(0.100000,-0.100000)"
fill="#000000" stroke="none">
<path d="M1705 5106 c-574 -84 -1073 -409 -1374 -893 -349 -563 -383 -1275
-89 -1873 285 -580 834 -972 1484 -1060 123 -16 402 -14 520 4 217 33 445 107
621 201 l82 43 738 -732 c855 -847 785 -791 978 -791 99 0 116 3 168 27 70 33
162 123 196 192 34 71 48 180 32 258 -27 129 -10 111 -786 881 l-724 718 45
70 c66 102 168 318 209 441 210 646 65 1362 -378 1869 -166 190 -339 326 -557
438 -202 104 -359 158 -565 196 -120 23 -476 29 -600 11z m393 -687 c279 -30
523 -144 723 -337 414 -397 502 -1021 215 -1510 -183 -311 -475 -518 -837
-592 -141 -29 -367 -25 -508 10 -564 137 -953 625 -953 1195 0 153 11 233 53
370 143 465 558 810 1039 864 109 12 159 12 268 0z"/>
</g>
</svg>
