<?xml version="1.0" standalone="no"?>
<!DOCTYPE svg PUBLIC "-//W3C//DTD SVG 20010904//EN"
 "http://www.w3.org/TR/2001/REC-SVG-20010904/DTD/svg10.dtd">
<svg version="1.0" xmlns="http://www.w3.org/2000/svg"
 width="325.000000pt" height="60.000000pt" viewBox="0 0 325.000000 60.000000"
 preserveAspectRatio="xMidYMid meet">
<metadata>
Created by potrace 1.16, written by Peter Selinger 2001-2019
</metadata>
<g transform="translate(0.000000,60.000000) scale(0.100000,-0.100000)"
fill="#000000" stroke="none">
<path d="M206 555 c-60 -21 -88 -46 -116 -101 -23 -44 -25 -63 -28 -191 l-4
-143 61 0 61 0 0 55 0 55 65 0 c58 0 65 2 65 20 0 18 -7 20 -65 20 l-65 0 0
75 c0 116 32 175 96 175 47 0 81 -37 90 -98 12 -77 -2 -222 -28 -300 -24 -71
-22 -92 8 -92 30 0 101 115 124 199 19 70 14 166 -10 217 -50 101 -152 146
-254 109z"/>
<path d="M1340 558 c-50 -14 -97 -53 -122 -101 -20 -37 -23 -61 -26 -190 l-4
-147 61 0 61 0 0 55 0 55 65 0 c58 0 65 2 65 20 0 18 -7 20 -65 20 l-65 0 0
69 c0 91 8 126 36 156 48 51 122 23 144 -56 22 -77 1 -279 -37 -352 -13 -27
-13 -31 1 -46 22 -21 42 -8 83 53 43 63 73 163 73 240 0 161 -125 265 -270
224z"/>
<path d="M690 340 l0 -220 160 0 160 0 0 25 c0 24 -1 24 -97 27 l-98 3 -3 193
-2 192 -60 0 -60 0 0 -220z"/>
<path d="M1844 341 l81 -220 56 -1 56 0 73 208 c40 114 75 213 78 220 3 8 -7
12 -31 12 l-36 0 -45 -142 c-25 -79 -48 -155 -51 -171 -4 -15 -11 -29 -15 -32
-4 -2 -34 73 -66 168 l-59 172 -61 3 -62 3 82 -220z"/>
<path d="M2380 340 l0 -220 155 0 155 0 0 25 c0 24 -1 24 -97 27 l-98 3 -3 68
-3 67 76 0 75 0 0 30 0 30 -75 0 -76 0 3 68 3 67 98 3 c96 3 97 3 97 27 l0 25
-155 0 -155 0 0 -220z"/>
<path d="M2870 535 l0 -25 115 0 c63 0 115 -2 115 -5 0 -3 -52 -79 -115 -169
-75 -107 -115 -173 -115 -190 l0 -26 185 0 185 0 0 25 c0 24 0 24 -116 27
l-115 3 115 165 c80 113 116 174 116 193 l0 27 -185 0 -185 0 0 -25z"/>
</g>
</svg>
